<mxfile host="app.diagrams.net" agent="Mozilla/5.0 (Windows NT 10.0; Win64; x64) AppleWebKit/537.36 (KHTML, like Gecko) Chrome/133.0.0.0 Safari/537.36 OPR/118.0.0.0" version="24.7.8">
  <diagram name="Página-1" id="ywiBC3HDWrVH8LoYeoai">
    <mxGraphModel dx="1393" dy="817" grid="0" gridSize="10" guides="1" tooltips="1" connect="1" arrows="1" fold="1" page="0" pageScale="1" pageWidth="1169" pageHeight="827" background="#f1f1f1" math="0" shadow="0">
      <root>
        <mxCell id="0" />
        <mxCell id="1" parent="0" />
        <mxCell id="p4lTBXX4uPj8gvHeLf1A-26" style="edgeStyle=orthogonalEdgeStyle;curved=1;rounded=0;orthogonalLoop=1;jettySize=auto;html=1;exitX=0.5;exitY=0;exitDx=0;exitDy=0;entryX=0.5;entryY=0;entryDx=0;entryDy=0;fillColor=#f5f5f5;strokeColor=#000000;labelBackgroundColor=#f1f1f1;strokeWidth=2;fontColor=default;" edge="1" parent="1" source="GbyF3fx3f7htL4Zepof5-1" target="p4lTBXX4uPj8gvHeLf1A-1">
          <mxGeometry relative="1" as="geometry">
            <Array as="points">
              <mxPoint x="262" y="69" />
              <mxPoint x="885" y="69" />
            </Array>
          </mxGeometry>
        </mxCell>
        <mxCell id="GbyF3fx3f7htL4Zepof5-1" value="&lt;span style=&quot;font-family: &amp;quot;Source Sans Pro&amp;quot;, Roboto, &amp;quot;San Francisco&amp;quot;, &amp;quot;Segoe UI&amp;quot;, sans-serif;&quot;&gt;&lt;font&gt;&lt;font style=&quot;font-size: 36px;&quot;&gt;𝜂&lt;/font&gt;&lt;i style=&quot;&quot;&gt;&lt;b style=&quot;&quot;&gt;&lt;sub style=&quot;&quot;&gt;&lt;font style=&quot;font-size: 14px;&quot;&gt;1&lt;/font&gt;&lt;/sub&gt;&lt;/b&gt;&lt;/i&gt;&lt;/font&gt;&lt;/span&gt;" style="ellipse;whiteSpace=wrap;html=1;aspect=fixed;strokeColor=#000000;fillColor=#f1f1f1;fontColor=default;labelBackgroundColor=#f1f1f1;strokeWidth=2;" parent="1" vertex="1">
          <mxGeometry x="228.5" y="222" width="67" height="67" as="geometry" />
        </mxCell>
        <mxCell id="GbyF3fx3f7htL4Zepof5-2" value="&lt;span style=&quot;font-family: &amp;quot;Source Sans Pro&amp;quot;, Roboto, &amp;quot;San Francisco&amp;quot;, &amp;quot;Segoe UI&amp;quot;, sans-serif;&quot;&gt;&lt;font&gt;&lt;font style=&quot;font-size: 36px;&quot;&gt;𝜂&lt;/font&gt;&lt;i style=&quot;&quot;&gt;&lt;b style=&quot;&quot;&gt;&lt;sub style=&quot;&quot;&gt;&lt;font style=&quot;font-size: 14px;&quot;&gt;2&lt;/font&gt;&lt;/sub&gt;&lt;/b&gt;&lt;/i&gt;&lt;/font&gt;&lt;/span&gt;" style="ellipse;whiteSpace=wrap;html=1;aspect=fixed;strokeColor=#000000;fillColor=#f1f1f1;fontColor=default;labelBackgroundColor=#f1f1f1;strokeWidth=2;" parent="1" vertex="1">
          <mxGeometry x="540.5" y="222" width="67" height="67" as="geometry" />
        </mxCell>
        <mxCell id="GbyF3fx3f7htL4Zepof5-3" value="&lt;font style=&quot;&quot;&gt;&lt;span style=&quot;font-size: 36px;&quot;&gt;y&lt;/span&gt;&lt;sub style=&quot;&quot;&gt;&lt;font style=&quot;font-size: 15px;&quot;&gt;2&lt;/font&gt;&lt;/sub&gt;&lt;/font&gt;" style="whiteSpace=wrap;html=1;aspect=fixed;strokeColor=#000000;fillColor=#f1f1f1;fontColor=default;labelBackgroundColor=#f1f1f1;strokeWidth=2;" parent="1" vertex="1">
          <mxGeometry x="236" y="437" width="52" height="52" as="geometry" />
        </mxCell>
        <mxCell id="GbyF3fx3f7htL4Zepof5-4" value="&lt;font style=&quot;&quot;&gt;&lt;span style=&quot;font-size: 36px;&quot;&gt;y&lt;/span&gt;&lt;sub style=&quot;&quot;&gt;&lt;font style=&quot;font-size: 15px;&quot;&gt;1&lt;/font&gt;&lt;/sub&gt;&lt;/font&gt;" style="whiteSpace=wrap;html=1;aspect=fixed;strokeColor=#000000;fillColor=#f1f1f1;fontColor=default;strokeWidth=2;" parent="1" vertex="1">
          <mxGeometry x="129.5" y="437" width="52" height="52" as="geometry" />
        </mxCell>
        <mxCell id="GbyF3fx3f7htL4Zepof5-5" value="&lt;font style=&quot;&quot;&gt;&lt;span style=&quot;font-size: 36px;&quot;&gt;y&lt;/span&gt;&lt;sub style=&quot;&quot;&gt;&lt;font style=&quot;font-size: 15px;&quot;&gt;3&lt;/font&gt;&lt;/sub&gt;&lt;/font&gt;" style="whiteSpace=wrap;html=1;aspect=fixed;strokeColor=#000000;fillColor=#f1f1f1;fontColor=default;labelBackgroundColor=#f1f1f1;strokeWidth=2;" parent="1" vertex="1">
          <mxGeometry x="340.5" y="437" width="52" height="52" as="geometry" />
        </mxCell>
        <mxCell id="GbyF3fx3f7htL4Zepof5-6" value="&lt;font style=&quot;&quot;&gt;&lt;span style=&quot;font-size: 36px;&quot;&gt;y&lt;/span&gt;&lt;sub style=&quot;&quot;&gt;&lt;font style=&quot;font-size: 15px;&quot;&gt;5&lt;/font&gt;&lt;/sub&gt;&lt;/font&gt;" style="whiteSpace=wrap;html=1;aspect=fixed;strokeColor=#000000;fillColor=#f1f1f1;fontColor=default;labelBackgroundColor=#f1f1f1;strokeWidth=2;" parent="1" vertex="1">
          <mxGeometry x="548" y="437" width="52" height="52" as="geometry" />
        </mxCell>
        <mxCell id="GbyF3fx3f7htL4Zepof5-7" value="&lt;font style=&quot;&quot;&gt;&lt;span style=&quot;font-size: 36px;&quot;&gt;y&lt;/span&gt;&lt;sub style=&quot;&quot;&gt;&lt;font style=&quot;font-size: 15px;&quot;&gt;4&lt;/font&gt;&lt;/sub&gt;&lt;/font&gt;" style="whiteSpace=wrap;html=1;aspect=fixed;strokeColor=#000000;fillColor=#f1f1f1;fontColor=default;labelBackgroundColor=#f1f1f1;strokeWidth=2;" parent="1" vertex="1">
          <mxGeometry x="445.5" y="437" width="52" height="52" as="geometry" />
        </mxCell>
        <mxCell id="GbyF3fx3f7htL4Zepof5-8" value="&lt;font style=&quot;&quot;&gt;&lt;span style=&quot;font-size: 36px;&quot;&gt;y&lt;/span&gt;&lt;sub style=&quot;&quot;&gt;&lt;font style=&quot;font-size: 15px;&quot;&gt;6&lt;/font&gt;&lt;/sub&gt;&lt;/font&gt;" style="whiteSpace=wrap;html=1;aspect=fixed;strokeColor=#000000;fillColor=#f1f1f1;fontColor=default;labelBackgroundColor=#f1f1f1;strokeWidth=2;" parent="1" vertex="1">
          <mxGeometry x="651.5" y="437" width="52" height="52" as="geometry" />
        </mxCell>
        <mxCell id="GbyF3fx3f7htL4Zepof5-9" value="" style="endArrow=classic;html=1;rounded=0;entryX=0.5;entryY=0;entryDx=0;entryDy=0;exitX=0.5;exitY=1;exitDx=0;exitDy=0;strokeColor=#000000;fillColor=#f5f5f5;labelBackgroundColor=#f1f1f1;strokeWidth=2;fontColor=default;" parent="1" source="GbyF3fx3f7htL4Zepof5-1" target="GbyF3fx3f7htL4Zepof5-4" edge="1">
          <mxGeometry width="50" height="50" relative="1" as="geometry">
            <mxPoint x="204.5" y="305" as="sourcePoint" />
            <mxPoint x="97.5" y="498" as="targetPoint" />
          </mxGeometry>
        </mxCell>
        <mxCell id="GbyF3fx3f7htL4Zepof5-10" value="" style="endArrow=classic;html=1;rounded=0;exitX=0.5;exitY=1;exitDx=0;exitDy=0;entryX=0.5;entryY=0;entryDx=0;entryDy=0;strokeColor=#000000;fillColor=#f5f5f5;labelBackgroundColor=#f1f1f1;strokeWidth=2;fontColor=default;" parent="1" source="GbyF3fx3f7htL4Zepof5-1" target="GbyF3fx3f7htL4Zepof5-3" edge="1">
          <mxGeometry width="50" height="50" relative="1" as="geometry">
            <mxPoint x="265.5" y="297" as="sourcePoint" />
            <mxPoint x="165.5" y="490" as="targetPoint" />
          </mxGeometry>
        </mxCell>
        <mxCell id="GbyF3fx3f7htL4Zepof5-11" value="" style="endArrow=classic;html=1;rounded=0;exitX=0.5;exitY=1;exitDx=0;exitDy=0;entryX=0.5;entryY=0;entryDx=0;entryDy=0;strokeColor=#000000;fillColor=#f5f5f5;labelBackgroundColor=#f1f1f1;strokeWidth=2;fontColor=default;" parent="1" source="GbyF3fx3f7htL4Zepof5-1" target="GbyF3fx3f7htL4Zepof5-5" edge="1">
          <mxGeometry width="50" height="50" relative="1" as="geometry">
            <mxPoint x="275.5" y="307" as="sourcePoint" />
            <mxPoint x="175.5" y="500" as="targetPoint" />
          </mxGeometry>
        </mxCell>
        <mxCell id="GbyF3fx3f7htL4Zepof5-12" value="" style="endArrow=classic;html=1;rounded=0;entryX=0.5;entryY=0;entryDx=0;entryDy=0;exitX=0.5;exitY=1;exitDx=0;exitDy=0;strokeColor=#000000;fillColor=#f5f5f5;labelBackgroundColor=#f1f1f1;strokeWidth=2;fontColor=default;" parent="1" source="GbyF3fx3f7htL4Zepof5-2" target="GbyF3fx3f7htL4Zepof5-7" edge="1">
          <mxGeometry width="50" height="50" relative="1" as="geometry">
            <mxPoint x="573.5" y="310" as="sourcePoint" />
            <mxPoint x="466.5" y="501" as="targetPoint" />
          </mxGeometry>
        </mxCell>
        <mxCell id="GbyF3fx3f7htL4Zepof5-13" value="" style="endArrow=classic;html=1;rounded=0;exitX=0.5;exitY=1;exitDx=0;exitDy=0;entryX=0.5;entryY=0;entryDx=0;entryDy=0;strokeColor=#000000;fillColor=#f5f5f5;labelBackgroundColor=#f1f1f1;strokeWidth=2;fontColor=default;" parent="1" source="GbyF3fx3f7htL4Zepof5-2" target="GbyF3fx3f7htL4Zepof5-6" edge="1">
          <mxGeometry width="50" height="50" relative="1" as="geometry">
            <mxPoint x="573.5" y="310" as="sourcePoint" />
            <mxPoint x="573.5" y="501" as="targetPoint" />
          </mxGeometry>
        </mxCell>
        <mxCell id="GbyF3fx3f7htL4Zepof5-14" value="" style="endArrow=classic;html=1;rounded=0;exitX=0.5;exitY=1;exitDx=0;exitDy=0;entryX=0.5;entryY=0;entryDx=0;entryDy=0;strokeColor=#000000;fillColor=#f5f5f5;labelBackgroundColor=#f1f1f1;strokeWidth=2;fontColor=default;" parent="1" source="GbyF3fx3f7htL4Zepof5-2" target="GbyF3fx3f7htL4Zepof5-8" edge="1">
          <mxGeometry width="50" height="50" relative="1" as="geometry">
            <mxPoint x="573.5" y="310" as="sourcePoint" />
            <mxPoint x="677.5" y="501" as="targetPoint" />
          </mxGeometry>
        </mxCell>
        <mxCell id="GbyF3fx3f7htL4Zepof5-18" value="" style="endArrow=classic;startArrow=classic;html=1;rounded=0;exitX=0.5;exitY=0;exitDx=0;exitDy=0;entryX=0.5;entryY=0;entryDx=0;entryDy=0;edgeStyle=orthogonalEdgeStyle;curved=1;strokeColor=#000000;fillColor=#f5f5f5;labelBackgroundColor=#f1f1f1;strokeWidth=2;fontColor=default;" parent="1" source="GbyF3fx3f7htL4Zepof5-1" target="GbyF3fx3f7htL4Zepof5-2" edge="1">
          <mxGeometry width="50" height="50" relative="1" as="geometry">
            <mxPoint x="274.5" y="211" as="sourcePoint" />
            <mxPoint x="324.5" y="161" as="targetPoint" />
            <Array as="points">
              <mxPoint x="262.5" y="142" />
              <mxPoint x="574.5" y="142" />
            </Array>
          </mxGeometry>
        </mxCell>
        <mxCell id="GbyF3fx3f7htL4Zepof5-20" value="&lt;span style=&quot;font-family: &amp;quot;Source Sans Pro&amp;quot;, Roboto, &amp;quot;San Francisco&amp;quot;, &amp;quot;Segoe UI&amp;quot;, sans-serif; background-color: rgb(241, 241, 241);&quot;&gt;&lt;font style=&quot;&quot;&gt;&lt;font style=&quot;&quot;&gt;&lt;font style=&quot;font-size: 36px;&quot;&gt;𝜀&lt;/font&gt;&lt;/font&gt;&lt;i style=&quot;&quot;&gt;&lt;b style=&quot;&quot;&gt;&lt;sub style=&quot;&quot;&gt;&lt;font style=&quot;font-size: 14px;&quot;&gt;1&lt;/font&gt;&lt;/sub&gt;&lt;/b&gt;&lt;/i&gt;&lt;/font&gt;&lt;/span&gt;" style="ellipse;whiteSpace=wrap;html=1;aspect=fixed;strokeColor=#000000;fillColor=#f1f1f1;fontColor=default;strokeWidth=2;" parent="1" vertex="1">
          <mxGeometry x="122" y="564" width="67" height="67" as="geometry" />
        </mxCell>
        <mxCell id="GbyF3fx3f7htL4Zepof5-21" value="&lt;span style=&quot;font-family: &amp;quot;Source Sans Pro&amp;quot;, Roboto, &amp;quot;San Francisco&amp;quot;, &amp;quot;Segoe UI&amp;quot;, sans-serif;&quot;&gt;&lt;font&gt;&lt;font&gt;&lt;font style=&quot;font-size: 36px;&quot;&gt;𝜀&lt;/font&gt;&lt;/font&gt;&lt;i style=&quot;&quot;&gt;&lt;b style=&quot;&quot;&gt;&lt;sub style=&quot;&quot;&gt;&lt;font style=&quot;font-size: 14px;&quot;&gt;2&lt;/font&gt;&lt;/sub&gt;&lt;/b&gt;&lt;/i&gt;&lt;/font&gt;&lt;/span&gt;" style="ellipse;whiteSpace=wrap;html=1;aspect=fixed;strokeColor=#000000;fillColor=#f1f1f1;fontColor=default;labelBackgroundColor=#f1f1f1;strokeWidth=2;" parent="1" vertex="1">
          <mxGeometry x="228.5" y="564" width="67" height="67" as="geometry" />
        </mxCell>
        <mxCell id="GbyF3fx3f7htL4Zepof5-22" value="&lt;span style=&quot;font-family: &amp;quot;Source Sans Pro&amp;quot;, Roboto, &amp;quot;San Francisco&amp;quot;, &amp;quot;Segoe UI&amp;quot;, sans-serif;&quot;&gt;&lt;font&gt;&lt;font&gt;&lt;font style=&quot;font-size: 36px;&quot;&gt;𝜀&lt;/font&gt;&lt;/font&gt;&lt;i style=&quot;&quot;&gt;&lt;b style=&quot;&quot;&gt;&lt;sub style=&quot;&quot;&gt;&lt;font style=&quot;font-size: 14px;&quot;&gt;3&lt;/font&gt;&lt;/sub&gt;&lt;/b&gt;&lt;/i&gt;&lt;/font&gt;&lt;/span&gt;" style="ellipse;whiteSpace=wrap;html=1;aspect=fixed;strokeColor=#000000;fillColor=#f1f1f1;fontColor=default;labelBackgroundColor=#f1f1f1;strokeWidth=2;" parent="1" vertex="1">
          <mxGeometry x="333" y="564" width="67" height="67" as="geometry" />
        </mxCell>
        <mxCell id="GbyF3fx3f7htL4Zepof5-23" value="&lt;span style=&quot;font-family: &amp;quot;Source Sans Pro&amp;quot;, Roboto, &amp;quot;San Francisco&amp;quot;, &amp;quot;Segoe UI&amp;quot;, sans-serif;&quot;&gt;&lt;font&gt;&lt;font&gt;&lt;font style=&quot;font-size: 36px;&quot;&gt;𝜀&lt;/font&gt;&lt;/font&gt;&lt;i style=&quot;&quot;&gt;&lt;b style=&quot;&quot;&gt;&lt;sub style=&quot;&quot;&gt;&lt;font style=&quot;font-size: 14px;&quot;&gt;4&lt;/font&gt;&lt;/sub&gt;&lt;/b&gt;&lt;/i&gt;&lt;/font&gt;&lt;/span&gt;" style="ellipse;whiteSpace=wrap;html=1;aspect=fixed;strokeColor=#000000;fillColor=#f1f1f1;fontColor=default;labelBackgroundColor=#f1f1f1;strokeWidth=2;" parent="1" vertex="1">
          <mxGeometry x="438.5" y="564" width="67" height="67" as="geometry" />
        </mxCell>
        <mxCell id="GbyF3fx3f7htL4Zepof5-24" value="&lt;span style=&quot;font-family: &amp;quot;Source Sans Pro&amp;quot;, Roboto, &amp;quot;San Francisco&amp;quot;, &amp;quot;Segoe UI&amp;quot;, sans-serif;&quot;&gt;&lt;font&gt;&lt;font&gt;&lt;font style=&quot;font-size: 36px;&quot;&gt;𝜀&lt;/font&gt;&lt;/font&gt;&lt;i style=&quot;&quot;&gt;&lt;b style=&quot;&quot;&gt;&lt;sub style=&quot;&quot;&gt;&lt;font style=&quot;font-size: 14px;&quot;&gt;5&lt;/font&gt;&lt;/sub&gt;&lt;/b&gt;&lt;/i&gt;&lt;/font&gt;&lt;/span&gt;" style="ellipse;whiteSpace=wrap;html=1;aspect=fixed;strokeColor=#000000;fillColor=#f1f1f1;fontColor=default;labelBackgroundColor=#f1f1f1;strokeWidth=2;" parent="1" vertex="1">
          <mxGeometry x="540.5" y="564" width="67" height="67" as="geometry" />
        </mxCell>
        <mxCell id="GbyF3fx3f7htL4Zepof5-25" value="&lt;span style=&quot;font-family: &amp;quot;Source Sans Pro&amp;quot;, Roboto, &amp;quot;San Francisco&amp;quot;, &amp;quot;Segoe UI&amp;quot;, sans-serif;&quot;&gt;&lt;font&gt;&lt;font&gt;&lt;font style=&quot;font-size: 36px;&quot;&gt;𝜀&lt;/font&gt;&lt;/font&gt;&lt;i style=&quot;&quot;&gt;&lt;b style=&quot;&quot;&gt;&lt;sub style=&quot;&quot;&gt;&lt;font style=&quot;font-size: 14px;&quot;&gt;6&lt;/font&gt;&lt;/sub&gt;&lt;/b&gt;&lt;/i&gt;&lt;/font&gt;&lt;/span&gt;" style="ellipse;whiteSpace=wrap;html=1;aspect=fixed;strokeColor=#000000;fillColor=#f1f1f1;fontColor=default;labelBackgroundColor=#f1f1f1;strokeWidth=2;" parent="1" vertex="1">
          <mxGeometry x="644" y="564" width="67" height="67" as="geometry" />
        </mxCell>
        <mxCell id="GbyF3fx3f7htL4Zepof5-26" value="" style="endArrow=classic;html=1;rounded=0;entryX=0.5;entryY=1;entryDx=0;entryDy=0;exitX=0.5;exitY=0;exitDx=0;exitDy=0;strokeColor=#000000;fillColor=#f5f5f5;labelBackgroundColor=#f1f1f1;strokeWidth=2;fontColor=default;" parent="1" source="GbyF3fx3f7htL4Zepof5-20" target="GbyF3fx3f7htL4Zepof5-4" edge="1">
          <mxGeometry width="50" height="50" relative="1" as="geometry">
            <mxPoint x="268.5" y="317" as="sourcePoint" />
            <mxPoint x="161.5" y="508" as="targetPoint" />
          </mxGeometry>
        </mxCell>
        <mxCell id="GbyF3fx3f7htL4Zepof5-28" value="" style="endArrow=classic;html=1;rounded=0;entryX=0.5;entryY=1;entryDx=0;entryDy=0;exitX=0.5;exitY=0;exitDx=0;exitDy=0;strokeColor=#000000;fillColor=#f5f5f5;labelBackgroundColor=#f1f1f1;strokeWidth=2;fontColor=default;" parent="1" source="GbyF3fx3f7htL4Zepof5-21" target="GbyF3fx3f7htL4Zepof5-3" edge="1">
          <mxGeometry width="50" height="50" relative="1" as="geometry">
            <mxPoint x="261.5" y="539" as="sourcePoint" />
            <mxPoint x="261.5" y="487" as="targetPoint" />
          </mxGeometry>
        </mxCell>
        <mxCell id="GbyF3fx3f7htL4Zepof5-30" value="" style="endArrow=classic;html=1;rounded=0;entryX=0.5;entryY=1;entryDx=0;entryDy=0;exitX=0.5;exitY=0;exitDx=0;exitDy=0;strokeColor=#000000;fillColor=#f5f5f5;labelBackgroundColor=#f1f1f1;strokeWidth=2;fontColor=default;" parent="1" source="GbyF3fx3f7htL4Zepof5-22" target="GbyF3fx3f7htL4Zepof5-5" edge="1">
          <mxGeometry width="50" height="50" relative="1" as="geometry">
            <mxPoint x="366" y="551" as="sourcePoint" />
            <mxPoint x="366" y="499" as="targetPoint" />
          </mxGeometry>
        </mxCell>
        <mxCell id="GbyF3fx3f7htL4Zepof5-31" value="" style="endArrow=classic;html=1;rounded=0;entryX=0.5;entryY=1;entryDx=0;entryDy=0;exitX=0.5;exitY=0;exitDx=0;exitDy=0;strokeColor=#000000;fillColor=#f5f5f5;labelBackgroundColor=#f1f1f1;strokeWidth=2;fontColor=default;" parent="1" source="GbyF3fx3f7htL4Zepof5-23" target="GbyF3fx3f7htL4Zepof5-7" edge="1">
          <mxGeometry width="50" height="50" relative="1" as="geometry">
            <mxPoint x="376.5" y="551" as="sourcePoint" />
            <mxPoint x="376.5" y="499" as="targetPoint" />
          </mxGeometry>
        </mxCell>
        <mxCell id="GbyF3fx3f7htL4Zepof5-32" value="" style="endArrow=classic;html=1;rounded=0;entryX=0.5;entryY=1;entryDx=0;entryDy=0;exitX=0.5;exitY=0;exitDx=0;exitDy=0;strokeColor=#000000;fillColor=#f5f5f5;labelBackgroundColor=#f1f1f1;strokeWidth=2;fontColor=default;" parent="1" source="GbyF3fx3f7htL4Zepof5-24" target="GbyF3fx3f7htL4Zepof5-6" edge="1">
          <mxGeometry width="50" height="50" relative="1" as="geometry">
            <mxPoint x="482.5" y="551" as="sourcePoint" />
            <mxPoint x="481.5" y="499" as="targetPoint" />
          </mxGeometry>
        </mxCell>
        <mxCell id="GbyF3fx3f7htL4Zepof5-33" value="" style="endArrow=classic;html=1;rounded=0;entryX=0.5;entryY=1;entryDx=0;entryDy=0;exitX=0.5;exitY=0;exitDx=0;exitDy=0;strokeColor=#000000;fillColor=#f5f5f5;labelBackgroundColor=#f1f1f1;strokeWidth=2;fontColor=default;" parent="1" source="GbyF3fx3f7htL4Zepof5-25" target="GbyF3fx3f7htL4Zepof5-8" edge="1">
          <mxGeometry width="50" height="50" relative="1" as="geometry">
            <mxPoint x="679.5" y="548" as="sourcePoint" />
            <mxPoint x="679.5" y="496" as="targetPoint" />
          </mxGeometry>
        </mxCell>
        <mxCell id="GbyF3fx3f7htL4Zepof5-37" value="&lt;span style=&quot;font-family: &amp;quot;Source Sans Pro&amp;quot;, Roboto, &amp;quot;San Francisco&amp;quot;, &amp;quot;Segoe UI&amp;quot;, sans-serif;&quot;&gt;&lt;font style=&quot;&quot;&gt;&lt;span style=&quot;font-size: 18px;&quot;&gt;𝚿&lt;/span&gt;&lt;sub style=&quot;&quot;&gt;&lt;font style=&quot;&quot;&gt;12&lt;/font&gt;&lt;/sub&gt;&lt;/font&gt;&lt;/span&gt;" style="text;html=1;align=center;verticalAlign=middle;whiteSpace=wrap;rounded=0;strokeColor=none;fillColor=#f1f1f1;fontColor=default;labelBackgroundColor=#f1f1f1;strokeWidth=2;" parent="1" vertex="1">
          <mxGeometry x="386.5" y="149" width="60" height="30" as="geometry" />
        </mxCell>
        <mxCell id="GbyF3fx3f7htL4Zepof5-41" value="&lt;span style=&quot;font-family: &amp;quot;Source Sans Pro&amp;quot;, Roboto, &amp;quot;San Francisco&amp;quot;, &amp;quot;Segoe UI&amp;quot;, sans-serif;&quot;&gt;&lt;font style=&quot;&quot;&gt;&lt;span style=&quot;font-size: 18px;&quot;&gt;𝚿&lt;/span&gt;&lt;sub style=&quot;&quot;&gt;&lt;font style=&quot;&quot;&gt;11&lt;/font&gt;&lt;/sub&gt;&lt;/font&gt;&lt;/span&gt;" style="text;html=1;align=center;verticalAlign=middle;whiteSpace=wrap;rounded=0;fillColor=#f1f1f1;fontColor=default;strokeColor=none;labelBackgroundColor=#f1f1f1;strokeWidth=2;" parent="1" vertex="1">
          <mxGeometry x="209.5" y="192" width="26.5" height="30" as="geometry" />
        </mxCell>
        <mxCell id="GbyF3fx3f7htL4Zepof5-42" value="&lt;span style=&quot;font-family: &amp;quot;Source Sans Pro&amp;quot;, Roboto, &amp;quot;San Francisco&amp;quot;, &amp;quot;Segoe UI&amp;quot;, sans-serif;&quot;&gt;&lt;font style=&quot;&quot;&gt;&lt;span style=&quot;font-size: 18px;&quot;&gt;𝚿&lt;/span&gt;&lt;sub style=&quot;&quot;&gt;&lt;font&gt;22&lt;/font&gt;&lt;/sub&gt;&lt;/font&gt;&lt;/span&gt;" style="text;html=1;align=center;verticalAlign=middle;whiteSpace=wrap;rounded=0;strokeColor=none;fillColor=#f1f1f1;fontColor=default;labelBackgroundColor=#f1f1f1;strokeWidth=2;" parent="1" vertex="1">
          <mxGeometry x="600" y="192" width="26.5" height="30" as="geometry" />
        </mxCell>
        <mxCell id="GbyF3fx3f7htL4Zepof5-50" value="&lt;span style=&quot;font-family: &amp;quot;Source Sans Pro&amp;quot;, Roboto, &amp;quot;San Francisco&amp;quot;, &amp;quot;Segoe UI&amp;quot;, sans-serif;&quot;&gt;&lt;font&gt;&lt;span&gt;&lt;font style=&quot;font-size: 24px;&quot;&gt;𝜃&lt;/font&gt;&lt;/span&gt;&lt;sub style=&quot;&quot;&gt;&lt;font&gt;11&lt;/font&gt;&lt;/sub&gt;&lt;/font&gt;&lt;/span&gt;" style="text;html=1;align=center;verticalAlign=middle;whiteSpace=wrap;rounded=0;strokeColor=none;fillColor=#f1f1f1;fontColor=default;labelBackgroundColor=#f1f1f1;strokeWidth=2;" parent="1" vertex="1">
          <mxGeometry x="142.25" y="653" width="26.5" height="30" as="geometry" />
        </mxCell>
        <mxCell id="GbyF3fx3f7htL4Zepof5-51" value="&lt;span style=&quot;font-family: &amp;quot;Source Sans Pro&amp;quot;, Roboto, &amp;quot;San Francisco&amp;quot;, &amp;quot;Segoe UI&amp;quot;, sans-serif;&quot;&gt;&lt;font&gt;&lt;span&gt;&lt;font style=&quot;font-size: 24px;&quot;&gt;𝜃&lt;/font&gt;&lt;/span&gt;&lt;sub style=&quot;&quot;&gt;&lt;font&gt;22&lt;/font&gt;&lt;/sub&gt;&lt;/font&gt;&lt;/span&gt;" style="text;html=1;align=center;verticalAlign=middle;whiteSpace=wrap;rounded=0;strokeColor=none;fillColor=#f1f1f1;fontColor=default;labelBackgroundColor=#f1f1f1;strokeWidth=2;" parent="1" vertex="1">
          <mxGeometry x="248.75" y="653" width="26.5" height="30" as="geometry" />
        </mxCell>
        <mxCell id="GbyF3fx3f7htL4Zepof5-52" value="&lt;span style=&quot;font-family: &amp;quot;Source Sans Pro&amp;quot;, Roboto, &amp;quot;San Francisco&amp;quot;, &amp;quot;Segoe UI&amp;quot;, sans-serif;&quot;&gt;&lt;font&gt;&lt;span&gt;&lt;font style=&quot;font-size: 24px;&quot;&gt;𝜃&lt;/font&gt;&lt;/span&gt;&lt;sub style=&quot;&quot;&gt;&lt;font&gt;33&lt;/font&gt;&lt;/sub&gt;&lt;/font&gt;&lt;/span&gt;" style="text;html=1;align=center;verticalAlign=middle;whiteSpace=wrap;rounded=0;strokeColor=none;fillColor=#f1f1f1;fontColor=default;labelBackgroundColor=#f1f1f1;strokeWidth=2;" parent="1" vertex="1">
          <mxGeometry x="353.25" y="653" width="26.5" height="30" as="geometry" />
        </mxCell>
        <mxCell id="GbyF3fx3f7htL4Zepof5-53" value="&lt;span style=&quot;font-family: &amp;quot;Source Sans Pro&amp;quot;, Roboto, &amp;quot;San Francisco&amp;quot;, &amp;quot;Segoe UI&amp;quot;, sans-serif;&quot;&gt;&lt;font&gt;&lt;span&gt;&lt;font style=&quot;font-size: 24px;&quot;&gt;𝜃&lt;/font&gt;&lt;/span&gt;&lt;sub style=&quot;&quot;&gt;&lt;font&gt;44&lt;/font&gt;&lt;/sub&gt;&lt;/font&gt;&lt;/span&gt;" style="text;html=1;align=center;verticalAlign=middle;whiteSpace=wrap;rounded=0;strokeColor=none;fillColor=#f1f1f1;fontColor=default;labelBackgroundColor=#f1f1f1;strokeWidth=2;" parent="1" vertex="1">
          <mxGeometry x="458.25" y="656" width="26.5" height="30" as="geometry" />
        </mxCell>
        <mxCell id="GbyF3fx3f7htL4Zepof5-54" value="&lt;span style=&quot;font-family: &amp;quot;Source Sans Pro&amp;quot;, Roboto, &amp;quot;San Francisco&amp;quot;, &amp;quot;Segoe UI&amp;quot;, sans-serif;&quot;&gt;&lt;font&gt;&lt;span&gt;&lt;font style=&quot;font-size: 24px;&quot;&gt;𝜃&lt;/font&gt;&lt;/span&gt;&lt;sub style=&quot;&quot;&gt;&lt;font&gt;55&lt;/font&gt;&lt;/sub&gt;&lt;/font&gt;&lt;/span&gt;" style="text;html=1;align=center;verticalAlign=middle;whiteSpace=wrap;rounded=0;strokeColor=none;fillColor=#f1f1f1;fontColor=default;labelBackgroundColor=#f1f1f1;strokeWidth=2;" parent="1" vertex="1">
          <mxGeometry x="560.75" y="656" width="26.5" height="30" as="geometry" />
        </mxCell>
        <mxCell id="GbyF3fx3f7htL4Zepof5-55" value="&lt;span style=&quot;font-family: &amp;quot;Source Sans Pro&amp;quot;, Roboto, &amp;quot;San Francisco&amp;quot;, &amp;quot;Segoe UI&amp;quot;, sans-serif;&quot;&gt;&lt;font&gt;&lt;span&gt;&lt;font style=&quot;font-size: 24px;&quot;&gt;𝜃&lt;/font&gt;&lt;/span&gt;&lt;sub style=&quot;&quot;&gt;&lt;font&gt;66&lt;/font&gt;&lt;/sub&gt;&lt;/font&gt;&lt;/span&gt;" style="text;html=1;align=center;verticalAlign=middle;whiteSpace=wrap;rounded=0;strokeColor=none;fillColor=#f1f1f1;fontColor=default;labelBackgroundColor=#f1f1f1;strokeWidth=2;" parent="1" vertex="1">
          <mxGeometry x="664.25" y="656" width="26.5" height="30" as="geometry" />
        </mxCell>
        <mxCell id="GbyF3fx3f7htL4Zepof5-56" value="&lt;span style=&quot;font-family: &amp;quot;Source Sans Pro&amp;quot;, Roboto, &amp;quot;San Francisco&amp;quot;, &amp;quot;Segoe UI&amp;quot;, sans-serif;&quot;&gt;&lt;font&gt;&lt;font style=&quot;font-size: 24px;&quot;&gt;𝜆&lt;/font&gt;&lt;sub style=&quot;&quot;&gt;&lt;font&gt;11&lt;/font&gt;&lt;/sub&gt;&lt;/font&gt;&lt;/span&gt;" style="text;html=1;align=center;verticalAlign=middle;whiteSpace=wrap;rounded=0;strokeColor=none;fillColor=#f1f1f1;fontColor=default;labelBackgroundColor=#f1f1f1;strokeWidth=2;" parent="1" vertex="1">
          <mxGeometry x="159.5" y="355" width="26.5" height="30" as="geometry" />
        </mxCell>
        <mxCell id="GbyF3fx3f7htL4Zepof5-57" value="&lt;span style=&quot;font-family: &amp;quot;Source Sans Pro&amp;quot;, Roboto, &amp;quot;San Francisco&amp;quot;, &amp;quot;Segoe UI&amp;quot;, sans-serif;&quot;&gt;&lt;font&gt;&lt;font style=&quot;font-size: 24px;&quot;&gt;𝜆&lt;/font&gt;&lt;sub style=&quot;&quot;&gt;&lt;font&gt;21&lt;/font&gt;&lt;/sub&gt;&lt;/font&gt;&lt;/span&gt;" style="text;html=1;align=center;verticalAlign=middle;whiteSpace=wrap;rounded=0;strokeColor=none;fillColor=#f1f1f1;fontColor=default;labelBackgroundColor=#f1f1f1;strokeWidth=2;" parent="1" vertex="1">
          <mxGeometry x="221.5" y="355" width="26.5" height="30" as="geometry" />
        </mxCell>
        <mxCell id="GbyF3fx3f7htL4Zepof5-58" value="&lt;span style=&quot;font-family: &amp;quot;Source Sans Pro&amp;quot;, Roboto, &amp;quot;San Francisco&amp;quot;, &amp;quot;Segoe UI&amp;quot;, sans-serif;&quot;&gt;&lt;font&gt;&lt;font style=&quot;font-size: 24px;&quot;&gt;𝜆&lt;/font&gt;&lt;sub style=&quot;&quot;&gt;&lt;font&gt;31&lt;/font&gt;&lt;/sub&gt;&lt;/font&gt;&lt;/span&gt;" style="text;html=1;align=center;verticalAlign=middle;whiteSpace=wrap;rounded=0;strokeColor=none;fillColor=#f1f1f1;fontColor=default;labelBackgroundColor=#f1f1f1;strokeWidth=2;" parent="1" vertex="1">
          <mxGeometry x="281" y="355" width="26.5" height="30" as="geometry" />
        </mxCell>
        <mxCell id="GbyF3fx3f7htL4Zepof5-59" value="&lt;span style=&quot;font-family: &amp;quot;Source Sans Pro&amp;quot;, Roboto, &amp;quot;San Francisco&amp;quot;, &amp;quot;Segoe UI&amp;quot;, sans-serif;&quot;&gt;&lt;font&gt;&lt;font style=&quot;font-size: 24px;&quot;&gt;𝜆&lt;/font&gt;&lt;sub style=&quot;&quot;&gt;&lt;font&gt;12&lt;/font&gt;&lt;/sub&gt;&lt;/font&gt;&lt;/span&gt;" style="text;html=1;align=center;verticalAlign=middle;whiteSpace=wrap;rounded=0;strokeColor=none;fillColor=#f1f1f1;fontColor=default;labelBackgroundColor=#f1f1f1;strokeWidth=2;" parent="1" vertex="1">
          <mxGeometry x="471.5" y="355" width="26.5" height="30" as="geometry" />
        </mxCell>
        <mxCell id="GbyF3fx3f7htL4Zepof5-61" value="&lt;span style=&quot;font-family: &amp;quot;Source Sans Pro&amp;quot;, Roboto, &amp;quot;San Francisco&amp;quot;, &amp;quot;Segoe UI&amp;quot;, sans-serif;&quot;&gt;&lt;font&gt;&lt;font style=&quot;font-size: 24px;&quot;&gt;𝜆&lt;/font&gt;&lt;sub style=&quot;&quot;&gt;&lt;font&gt;32&lt;/font&gt;&lt;/sub&gt;&lt;/font&gt;&lt;/span&gt;" style="text;html=1;align=center;verticalAlign=middle;whiteSpace=wrap;rounded=0;strokeColor=none;fillColor=#f1f1f1;fontColor=default;labelBackgroundColor=#f1f1f1;strokeWidth=2;" parent="1" vertex="1">
          <mxGeometry x="593" y="355" width="26.5" height="30" as="geometry" />
        </mxCell>
        <mxCell id="GbyF3fx3f7htL4Zepof5-60" value="&lt;span style=&quot;font-family: &amp;quot;Source Sans Pro&amp;quot;, Roboto, &amp;quot;San Francisco&amp;quot;, &amp;quot;Segoe UI&amp;quot;, sans-serif;&quot;&gt;&lt;font&gt;&lt;font style=&quot;font-size: 24px;&quot;&gt;𝜆&lt;/font&gt;&lt;sub style=&quot;&quot;&gt;&lt;font&gt;22&lt;/font&gt;&lt;/sub&gt;&lt;/font&gt;&lt;/span&gt;" style="text;html=1;align=center;verticalAlign=middle;whiteSpace=wrap;rounded=0;strokeColor=none;fillColor=#f1f1f1;fontColor=default;labelBackgroundColor=#f1f1f1;strokeWidth=2;" parent="1" vertex="1">
          <mxGeometry x="533.5" y="355" width="26.5" height="30" as="geometry" />
        </mxCell>
        <mxCell id="p4lTBXX4uPj8gvHeLf1A-1" value="&lt;span style=&quot;font-family: &amp;quot;Source Sans Pro&amp;quot;, Roboto, &amp;quot;San Francisco&amp;quot;, &amp;quot;Segoe UI&amp;quot;, sans-serif;&quot;&gt;&lt;font&gt;&lt;font style=&quot;font-size: 36px;&quot;&gt;𝜂&lt;/font&gt;&lt;i style=&quot;&quot;&gt;&lt;b style=&quot;&quot;&gt;&lt;sub style=&quot;&quot;&gt;&lt;font style=&quot;font-size: 14px;&quot;&gt;3&lt;/font&gt;&lt;/sub&gt;&lt;/b&gt;&lt;/i&gt;&lt;/font&gt;&lt;/span&gt;" style="ellipse;whiteSpace=wrap;html=1;aspect=fixed;strokeColor=#000000;fillColor=#f1f1f1;fontColor=default;labelBackgroundColor=#f1f1f1;strokeWidth=2;" vertex="1" parent="1">
          <mxGeometry x="851.5" y="222" width="67" height="67" as="geometry" />
        </mxCell>
        <mxCell id="p4lTBXX4uPj8gvHeLf1A-2" value="&lt;font style=&quot;&quot;&gt;&lt;span style=&quot;font-size: 36px;&quot;&gt;y&lt;/span&gt;&lt;sub style=&quot;&quot;&gt;&lt;font style=&quot;font-size: 15px;&quot;&gt;8&lt;/font&gt;&lt;/sub&gt;&lt;/font&gt;" style="whiteSpace=wrap;html=1;aspect=fixed;strokeColor=#000000;fillColor=#f1f1f1;fontColor=default;labelBackgroundColor=#f1f1f1;strokeWidth=2;" vertex="1" parent="1">
          <mxGeometry x="859" y="437" width="52" height="52" as="geometry" />
        </mxCell>
        <mxCell id="p4lTBXX4uPj8gvHeLf1A-3" value="&lt;font style=&quot;&quot;&gt;&lt;span style=&quot;font-size: 36px;&quot;&gt;y&lt;/span&gt;&lt;sub style=&quot;&quot;&gt;&lt;font style=&quot;font-size: 15px;&quot;&gt;7&lt;/font&gt;&lt;/sub&gt;&lt;/font&gt;" style="whiteSpace=wrap;html=1;aspect=fixed;strokeColor=#000000;fillColor=#f1f1f1;fontColor=default;labelBackgroundColor=#f1f1f1;strokeWidth=2;" vertex="1" parent="1">
          <mxGeometry x="756.5" y="437" width="52" height="52" as="geometry" />
        </mxCell>
        <mxCell id="p4lTBXX4uPj8gvHeLf1A-4" value="&lt;font style=&quot;&quot;&gt;&lt;span style=&quot;font-size: 36px;&quot;&gt;y&lt;/span&gt;&lt;sub style=&quot;&quot;&gt;&lt;font style=&quot;font-size: 15px;&quot;&gt;9&lt;/font&gt;&lt;/sub&gt;&lt;/font&gt;" style="whiteSpace=wrap;html=1;aspect=fixed;strokeColor=#000000;fillColor=#f1f1f1;fontColor=default;labelBackgroundColor=#f1f1f1;strokeWidth=2;" vertex="1" parent="1">
          <mxGeometry x="962.5" y="437" width="52" height="52" as="geometry" />
        </mxCell>
        <mxCell id="p4lTBXX4uPj8gvHeLf1A-5" value="" style="endArrow=classic;html=1;rounded=0;entryX=0.5;entryY=0;entryDx=0;entryDy=0;exitX=0.5;exitY=1;exitDx=0;exitDy=0;strokeColor=#000000;fillColor=#f5f5f5;labelBackgroundColor=#f1f1f1;strokeWidth=2;fontColor=default;" edge="1" parent="1" source="p4lTBXX4uPj8gvHeLf1A-1" target="p4lTBXX4uPj8gvHeLf1A-3">
          <mxGeometry width="50" height="50" relative="1" as="geometry">
            <mxPoint x="884.5" y="310" as="sourcePoint" />
            <mxPoint x="777.5" y="501" as="targetPoint" />
          </mxGeometry>
        </mxCell>
        <mxCell id="p4lTBXX4uPj8gvHeLf1A-6" value="" style="endArrow=classic;html=1;rounded=0;exitX=0.5;exitY=1;exitDx=0;exitDy=0;entryX=0.5;entryY=0;entryDx=0;entryDy=0;strokeColor=#000000;fillColor=#f5f5f5;labelBackgroundColor=#f1f1f1;strokeWidth=2;fontColor=default;" edge="1" parent="1" source="p4lTBXX4uPj8gvHeLf1A-1" target="p4lTBXX4uPj8gvHeLf1A-2">
          <mxGeometry width="50" height="50" relative="1" as="geometry">
            <mxPoint x="884.5" y="310" as="sourcePoint" />
            <mxPoint x="884.5" y="501" as="targetPoint" />
          </mxGeometry>
        </mxCell>
        <mxCell id="p4lTBXX4uPj8gvHeLf1A-7" value="" style="endArrow=classic;html=1;rounded=0;exitX=0.5;exitY=1;exitDx=0;exitDy=0;entryX=0.5;entryY=0;entryDx=0;entryDy=0;strokeColor=#000000;fillColor=#f5f5f5;labelBackgroundColor=#f1f1f1;strokeWidth=2;fontColor=default;" edge="1" parent="1" source="p4lTBXX4uPj8gvHeLf1A-1" target="p4lTBXX4uPj8gvHeLf1A-4">
          <mxGeometry width="50" height="50" relative="1" as="geometry">
            <mxPoint x="884.5" y="310" as="sourcePoint" />
            <mxPoint x="988.5" y="501" as="targetPoint" />
          </mxGeometry>
        </mxCell>
        <mxCell id="p4lTBXX4uPj8gvHeLf1A-8" value="&lt;span style=&quot;font-family: &amp;quot;Source Sans Pro&amp;quot;, Roboto, &amp;quot;San Francisco&amp;quot;, &amp;quot;Segoe UI&amp;quot;, sans-serif;&quot;&gt;&lt;font&gt;&lt;font&gt;&lt;font style=&quot;font-size: 36px;&quot;&gt;𝜀&lt;/font&gt;&lt;/font&gt;&lt;i style=&quot;&quot;&gt;&lt;b style=&quot;&quot;&gt;&lt;sub style=&quot;&quot;&gt;&lt;font style=&quot;font-size: 14px;&quot;&gt;7&lt;/font&gt;&lt;/sub&gt;&lt;/b&gt;&lt;/i&gt;&lt;/font&gt;&lt;/span&gt;" style="ellipse;whiteSpace=wrap;html=1;aspect=fixed;strokeColor=#000000;fillColor=#f1f1f1;fontColor=default;labelBackgroundColor=#f1f1f1;strokeWidth=2;" vertex="1" parent="1">
          <mxGeometry x="749.5" y="564" width="67" height="67" as="geometry" />
        </mxCell>
        <mxCell id="p4lTBXX4uPj8gvHeLf1A-9" value="&lt;span style=&quot;font-family: &amp;quot;Source Sans Pro&amp;quot;, Roboto, &amp;quot;San Francisco&amp;quot;, &amp;quot;Segoe UI&amp;quot;, sans-serif;&quot;&gt;&lt;font&gt;&lt;font&gt;&lt;font style=&quot;font-size: 36px;&quot;&gt;𝜀&lt;/font&gt;&lt;/font&gt;&lt;i style=&quot;&quot;&gt;&lt;b style=&quot;&quot;&gt;&lt;sub style=&quot;&quot;&gt;&lt;font style=&quot;font-size: 14px;&quot;&gt;8&lt;/font&gt;&lt;/sub&gt;&lt;/b&gt;&lt;/i&gt;&lt;/font&gt;&lt;/span&gt;" style="ellipse;whiteSpace=wrap;html=1;aspect=fixed;strokeColor=#000000;fillColor=#f1f1f1;fontColor=default;labelBackgroundColor=#f1f1f1;strokeWidth=2;" vertex="1" parent="1">
          <mxGeometry x="851.5" y="564" width="67" height="67" as="geometry" />
        </mxCell>
        <mxCell id="p4lTBXX4uPj8gvHeLf1A-10" value="&lt;span style=&quot;font-family: &amp;quot;Source Sans Pro&amp;quot;, Roboto, &amp;quot;San Francisco&amp;quot;, &amp;quot;Segoe UI&amp;quot;, sans-serif;&quot;&gt;&lt;font&gt;&lt;font&gt;&lt;font style=&quot;font-size: 36px;&quot;&gt;𝜀&lt;/font&gt;&lt;/font&gt;&lt;i style=&quot;&quot;&gt;&lt;b style=&quot;&quot;&gt;&lt;sub style=&quot;&quot;&gt;&lt;font style=&quot;font-size: 14px;&quot;&gt;9&lt;/font&gt;&lt;/sub&gt;&lt;/b&gt;&lt;/i&gt;&lt;/font&gt;&lt;/span&gt;" style="ellipse;whiteSpace=wrap;html=1;aspect=fixed;strokeColor=#000000;fillColor=#f1f1f1;fontColor=default;labelBackgroundColor=#f1f1f1;strokeWidth=2;" vertex="1" parent="1">
          <mxGeometry x="955" y="564" width="67" height="67" as="geometry" />
        </mxCell>
        <mxCell id="p4lTBXX4uPj8gvHeLf1A-11" value="" style="endArrow=classic;html=1;rounded=0;entryX=0.5;entryY=1;entryDx=0;entryDy=0;exitX=0.5;exitY=0;exitDx=0;exitDy=0;strokeColor=#000000;fillColor=#f5f5f5;labelBackgroundColor=#f1f1f1;strokeWidth=2;fontColor=default;" edge="1" parent="1" source="p4lTBXX4uPj8gvHeLf1A-8" target="p4lTBXX4uPj8gvHeLf1A-3">
          <mxGeometry width="50" height="50" relative="1" as="geometry">
            <mxPoint x="687.5" y="551" as="sourcePoint" />
            <mxPoint x="687.5" y="499" as="targetPoint" />
          </mxGeometry>
        </mxCell>
        <mxCell id="p4lTBXX4uPj8gvHeLf1A-12" value="" style="endArrow=classic;html=1;rounded=0;entryX=0.5;entryY=1;entryDx=0;entryDy=0;exitX=0.5;exitY=0;exitDx=0;exitDy=0;strokeColor=#000000;fillColor=#f5f5f5;labelBackgroundColor=#f1f1f1;strokeWidth=2;fontColor=default;" edge="1" parent="1" source="p4lTBXX4uPj8gvHeLf1A-9" target="p4lTBXX4uPj8gvHeLf1A-2">
          <mxGeometry width="50" height="50" relative="1" as="geometry">
            <mxPoint x="793.5" y="551" as="sourcePoint" />
            <mxPoint x="792.5" y="499" as="targetPoint" />
          </mxGeometry>
        </mxCell>
        <mxCell id="p4lTBXX4uPj8gvHeLf1A-13" value="" style="endArrow=classic;html=1;rounded=0;entryX=0.5;entryY=1;entryDx=0;entryDy=0;exitX=0.5;exitY=0;exitDx=0;exitDy=0;strokeColor=#000000;fillColor=#f5f5f5;labelBackgroundColor=#f1f1f1;strokeWidth=2;fontColor=default;" edge="1" parent="1" source="p4lTBXX4uPj8gvHeLf1A-10" target="p4lTBXX4uPj8gvHeLf1A-4">
          <mxGeometry width="50" height="50" relative="1" as="geometry">
            <mxPoint x="990.5" y="548" as="sourcePoint" />
            <mxPoint x="990.5" y="496" as="targetPoint" />
          </mxGeometry>
        </mxCell>
        <mxCell id="p4lTBXX4uPj8gvHeLf1A-14" value="&lt;span style=&quot;font-family: &amp;quot;Source Sans Pro&amp;quot;, Roboto, &amp;quot;San Francisco&amp;quot;, &amp;quot;Segoe UI&amp;quot;, sans-serif;&quot;&gt;&lt;font style=&quot;&quot;&gt;&lt;span style=&quot;font-size: 18px;&quot;&gt;𝚿&lt;/span&gt;&lt;sub style=&quot;&quot;&gt;&lt;font&gt;33&lt;/font&gt;&lt;/sub&gt;&lt;/font&gt;&lt;/span&gt;" style="text;html=1;align=center;verticalAlign=middle;whiteSpace=wrap;rounded=0;strokeColor=none;fillColor=#f1f1f1;fontColor=default;labelBackgroundColor=#f1f1f1;strokeWidth=2;" vertex="1" parent="1">
          <mxGeometry x="911" y="192" width="26.5" height="30" as="geometry" />
        </mxCell>
        <mxCell id="p4lTBXX4uPj8gvHeLf1A-15" value="&lt;span style=&quot;font-family: &amp;quot;Source Sans Pro&amp;quot;, Roboto, &amp;quot;San Francisco&amp;quot;, &amp;quot;Segoe UI&amp;quot;, sans-serif;&quot;&gt;&lt;font&gt;&lt;span&gt;&lt;font style=&quot;font-size: 24px;&quot;&gt;𝜃&lt;/font&gt;&lt;/span&gt;&lt;sub style=&quot;&quot;&gt;&lt;font&gt;77&lt;/font&gt;&lt;/sub&gt;&lt;/font&gt;&lt;/span&gt;" style="text;html=1;align=center;verticalAlign=middle;whiteSpace=wrap;rounded=0;strokeColor=none;fillColor=#f1f1f1;fontColor=default;labelBackgroundColor=#f1f1f1;strokeWidth=2;" vertex="1" parent="1">
          <mxGeometry x="769.25" y="656" width="26.5" height="30" as="geometry" />
        </mxCell>
        <mxCell id="p4lTBXX4uPj8gvHeLf1A-16" value="&lt;span style=&quot;font-family: &amp;quot;Source Sans Pro&amp;quot;, Roboto, &amp;quot;San Francisco&amp;quot;, &amp;quot;Segoe UI&amp;quot;, sans-serif;&quot;&gt;&lt;font&gt;&lt;span&gt;&lt;font style=&quot;font-size: 24px;&quot;&gt;𝜃&lt;/font&gt;&lt;/span&gt;&lt;sub style=&quot;&quot;&gt;&lt;font&gt;88&lt;/font&gt;&lt;/sub&gt;&lt;/font&gt;&lt;/span&gt;" style="text;html=1;align=center;verticalAlign=middle;whiteSpace=wrap;rounded=0;strokeColor=none;fillColor=#f1f1f1;fontColor=default;labelBackgroundColor=#f1f1f1;strokeWidth=2;" vertex="1" parent="1">
          <mxGeometry x="871.75" y="656" width="26.5" height="30" as="geometry" />
        </mxCell>
        <mxCell id="p4lTBXX4uPj8gvHeLf1A-17" value="&lt;span style=&quot;font-family: &amp;quot;Source Sans Pro&amp;quot;, Roboto, &amp;quot;San Francisco&amp;quot;, &amp;quot;Segoe UI&amp;quot;, sans-serif;&quot;&gt;&lt;font&gt;&lt;span&gt;&lt;font style=&quot;font-size: 24px;&quot;&gt;𝜃&lt;/font&gt;&lt;/span&gt;&lt;sub style=&quot;&quot;&gt;&lt;font&gt;99&lt;/font&gt;&lt;/sub&gt;&lt;/font&gt;&lt;/span&gt;" style="text;html=1;align=center;verticalAlign=middle;whiteSpace=wrap;rounded=0;strokeColor=none;fillColor=#f1f1f1;fontColor=default;labelBackgroundColor=#f1f1f1;strokeWidth=2;" vertex="1" parent="1">
          <mxGeometry x="975.25" y="656" width="26.5" height="30" as="geometry" />
        </mxCell>
        <mxCell id="p4lTBXX4uPj8gvHeLf1A-18" value="&lt;span style=&quot;font-family: &amp;quot;Source Sans Pro&amp;quot;, Roboto, &amp;quot;San Francisco&amp;quot;, &amp;quot;Segoe UI&amp;quot;, sans-serif;&quot;&gt;&lt;font&gt;&lt;font style=&quot;font-size: 24px;&quot;&gt;𝜆&lt;/font&gt;&lt;sub style=&quot;&quot;&gt;&lt;font&gt;13&lt;/font&gt;&lt;/sub&gt;&lt;/font&gt;&lt;/span&gt;" style="text;html=1;align=center;verticalAlign=middle;whiteSpace=wrap;rounded=0;strokeColor=none;fillColor=#f1f1f1;fontColor=default;labelBackgroundColor=#f1f1f1;strokeWidth=2;" vertex="1" parent="1">
          <mxGeometry x="782.5" y="355" width="26.5" height="30" as="geometry" />
        </mxCell>
        <mxCell id="p4lTBXX4uPj8gvHeLf1A-19" value="&lt;span style=&quot;font-family: &amp;quot;Source Sans Pro&amp;quot;, Roboto, &amp;quot;San Francisco&amp;quot;, &amp;quot;Segoe UI&amp;quot;, sans-serif;&quot;&gt;&lt;font&gt;&lt;font style=&quot;font-size: 24px;&quot;&gt;𝜆&lt;/font&gt;&lt;sub style=&quot;&quot;&gt;&lt;font&gt;23&lt;/font&gt;&lt;/sub&gt;&lt;/font&gt;&lt;/span&gt;" style="text;html=1;align=center;verticalAlign=middle;whiteSpace=wrap;rounded=0;strokeColor=none;fillColor=#f1f1f1;fontColor=default;labelBackgroundColor=#f1f1f1;strokeWidth=2;" vertex="1" parent="1">
          <mxGeometry x="844.5" y="355" width="26.5" height="30" as="geometry" />
        </mxCell>
        <mxCell id="p4lTBXX4uPj8gvHeLf1A-20" value="&lt;span style=&quot;font-family: &amp;quot;Source Sans Pro&amp;quot;, Roboto, &amp;quot;San Francisco&amp;quot;, &amp;quot;Segoe UI&amp;quot;, sans-serif;&quot;&gt;&lt;font&gt;&lt;font style=&quot;font-size: 24px;&quot;&gt;𝜆&lt;/font&gt;&lt;sub style=&quot;&quot;&gt;&lt;font&gt;33&lt;/font&gt;&lt;/sub&gt;&lt;/font&gt;&lt;/span&gt;" style="text;html=1;align=center;verticalAlign=middle;whiteSpace=wrap;rounded=0;strokeColor=none;fillColor=#f1f1f1;fontColor=default;labelBackgroundColor=#f1f1f1;strokeWidth=2;" vertex="1" parent="1">
          <mxGeometry x="904" y="355" width="26.5" height="30" as="geometry" />
        </mxCell>
        <mxCell id="p4lTBXX4uPj8gvHeLf1A-22" value="&lt;span style=&quot;font-family: &amp;quot;Source Sans Pro&amp;quot;, Roboto, &amp;quot;San Francisco&amp;quot;, &amp;quot;Segoe UI&amp;quot;, sans-serif;&quot;&gt;&lt;font style=&quot;&quot;&gt;&lt;span style=&quot;font-size: 18px;&quot;&gt;𝚿&lt;/span&gt;&lt;sub style=&quot;&quot;&gt;&lt;font&gt;23&lt;/font&gt;&lt;/sub&gt;&lt;/font&gt;&lt;/span&gt;" style="text;html=1;align=center;verticalAlign=middle;whiteSpace=wrap;rounded=0;strokeColor=none;fillColor=#f1f1f1;fontColor=default;labelBackgroundColor=#f1f1f1;strokeWidth=2;" vertex="1" parent="1">
          <mxGeometry x="707.25" y="149" width="60" height="30" as="geometry" />
        </mxCell>
        <mxCell id="p4lTBXX4uPj8gvHeLf1A-24" value="&lt;span style=&quot;font-family: &amp;quot;Source Sans Pro&amp;quot;, Roboto, &amp;quot;San Francisco&amp;quot;, &amp;quot;Segoe UI&amp;quot;, sans-serif;&quot;&gt;&lt;font style=&quot;&quot;&gt;&lt;span style=&quot;font-size: 18px;&quot;&gt;𝚿&lt;/span&gt;&lt;sub style=&quot;&quot;&gt;&lt;font&gt;13&lt;/font&gt;&lt;/sub&gt;&lt;/font&gt;&lt;/span&gt;" style="text;html=1;align=center;verticalAlign=middle;whiteSpace=wrap;rounded=0;strokeColor=none;fillColor=#f1f1f1;fontColor=default;labelBackgroundColor=#f1f1f1;strokeWidth=2;" vertex="1" parent="1">
          <mxGeometry x="544" y="76" width="60" height="30" as="geometry" />
        </mxCell>
        <mxCell id="p4lTBXX4uPj8gvHeLf1A-25" value="" style="endArrow=classic;startArrow=classic;html=1;rounded=0;exitX=0.5;exitY=0;exitDx=0;exitDy=0;entryX=0.5;entryY=0;entryDx=0;entryDy=0;edgeStyle=orthogonalEdgeStyle;curved=1;strokeColor=#000000;fillColor=#f5f5f5;labelBackgroundColor=#f1f1f1;strokeWidth=2;fontColor=default;" edge="1" parent="1">
          <mxGeometry width="50" height="50" relative="1" as="geometry">
            <mxPoint x="573" y="222" as="sourcePoint" />
            <mxPoint x="885" y="222" as="targetPoint" />
            <Array as="points">
              <mxPoint x="573.5" y="142" />
              <mxPoint x="885.5" y="142" />
            </Array>
          </mxGeometry>
        </mxCell>
      </root>
    </mxGraphModel>
  </diagram>
</mxfile>
